<svg viewBox="0 0 640 400" data-background-color="#ede1d1" preserveAspectRatio="xMidYMid meet" height="400" width="640" xmlns="http://www.w3.org/2000/svg" xmlns:xlink="http://www.w3.org/1999/xlink"><rect width="640" height="400" x="0" y="0" opacity="1" fill="#ede1d1" data-fill-palette-color="background" id="background"></rect><g id="tight-bounds" transform="matrix(1,0,0,1,122.24000000000001,138.7580798306894)"><svg viewBox="0 0 395.52 122.48384033862118" height="122.48384033862118" width="395.52"><g><svg viewBox="0 0 563.6171559496378 174.53983045470062" height="122.48384033862118" width="395.52"><g transform="matrix(1,0,0,1,168.09715594963777,24.122364411612025)"><svg viewBox="0 0 395.52 126.29510163147657" height="126.29510163147657" width="395.52"><g id="textblocktransform"><svg viewBox="0 0 395.52 126.29510163147657" height="126.29510163147657" width="395.52" id="textblock"><g><svg viewBox="0 0 395.52 77.44876259364506" height="77.44876259364506" width="395.52"><g transform="matrix(1,0,0,1,0,0)"><svg width="395.52" viewBox="0.75 -30.200000762939453 193.52999877929688 37.900001525878906" height="77.44876259364506" data-palette-color="#6a704c"><path d="M18.65 3.05L18.65 3.05Q15.8 3.05 13.9 1.95 12 0.85 11.65-1.45L11.65-1.45 11.65-1.75Q11.25-1.2 10.73-0.45 10.2 0.3 9.63 0.83 9.05 1.35 8.45 1.35L8.45 1.35Q8.35 1.35 7.88 1.25 7.4 1.15 6.98 1 6.55 0.85 6.5 0.65L6.5 0.65Q6.35-0.3 6.98-2.08 7.6-3.85 8.63-6 9.65-8.15 10.78-10.3 11.9-12.45 12.85-14.18 13.8-15.9 14.2-16.8L14.2-16.8Q14.5-17.35 14.6-17.73 14.7-18.1 14.7-18.3L14.7-18.3Q14.7-18.6 14.6-18.8L14.6-18.8Q14.7-19.4 15.33-20.4 15.95-21.4 16.9-22.4 17.85-23.4 18.95-24.08 20.05-24.75 21-24.75L21-24.75Q21.3-24.75 21.93-24.58 22.55-24.4 23.13-24.05 23.7-23.7 23.85-23.05L23.85-23.05Q23.9-22.9 23.9-22.75L23.9-22.75Q23.9-22.6 23.8-22.6L23.8-22.6Q23.7-22.6 23.53-22.68 23.35-22.75 23.25-22.75L23.25-22.75Q22.1-22.75 20.75-21.65 19.4-20.55 17.98-18.7 16.55-16.85 15.2-14.65 13.85-12.45 12.63-10.23 11.4-8 10.5-6.13 9.6-4.25 9.1-3.1L9.1-3.1Q8.7-2 8.7-1.55L8.7-1.55Q8.7-0.85 9.25-0.85L9.25-0.85Q9.95-0.85 10.75-1.8L10.75-1.8Q11.3-2.45 11.78-3.03 12.25-3.6 12.6-3.5L12.6-3.5Q13.3-3.5 13.55-3.13 13.8-2.75 13.85-2.25 13.9-1.75 13.95-1.35L13.95-1.35Q14.3 0.2 15.58 1.23 16.85 2.25 19.15 2.25L19.15 2.25Q21.6 2.25 23.55 1.45 25.5 0.65 26.65-0.78 27.8-2.2 27.8-4L27.8-4Q27.8-5.25 27.2-6.63 26.6-8 25.3-9.4L25.3-9.4Q24.2-10.7 22.85-11.85 21.5-13 20.53-13.98 19.55-14.95 19.55-15.65L19.55-15.65Q19.55-16.25 20.35-16.73 21.15-17.2 21.65-17.2L21.65-17.2Q22.8-17.2 24.58-17.65 26.35-18.1 28.25-18.88 30.15-19.65 31.73-20.6 33.3-21.55 34.05-22.5L34.05-22.5Q34.5-23.05 34.77-23.68 35.05-24.3 35.05-24.9L35.05-24.9Q35.05-25.85 34.23-26.63 33.4-27.4 31.45-27.75L31.45-27.75Q30.9-27.9 30.15-27.95 29.4-28 28.55-28L28.55-28Q26-28 22.65-27.53 19.3-27.05 15.85-26.15 12.4-25.25 9.4-23.9 6.4-22.55 4.48-20.78 2.55-19 2.3-16.85L2.3-16.85Q2.2-15.6 2.9-14.95 3.6-14.3 4.55-13.98 5.5-13.65 6.05-13.35L6.05-13.35Q6.5-13.15 6.5-12.95L6.5-12.95Q6.5-12.7 5.95-12.7L5.95-12.7Q5.35-12.7 4.45-13 3.55-13.3 2.68-13.93 1.8-14.55 1.25-15.45 0.7-16.35 0.85-17.55L0.85-17.55Q0.85-17.65 0.8-17.93 0.75-18.2 0.75-18.35L0.75-18.35Q0.9-19.95 2.13-21.4 3.35-22.85 5.03-24.05 6.7-25.25 8.15-26.05L8.15-26.05Q9.75-26.9 12-27.63 14.25-28.35 16.82-28.9 19.4-29.45 22.05-29.78 24.7-30.1 27-30.1L27-30.1Q29.45-30.1 31.3-29.7L31.3-29.7Q33.8-29.15 35.15-27.75 36.5-26.35 36.5-24.65L36.5-24.65Q36.45-22.8 35.38-21.43 34.3-20.05 32.6-19.1 30.9-18.15 28.93-17.53 26.95-16.9 25.05-16.6 23.15-16.3 21.75-16.25L21.75-16.25Q23.85-15 25.93-13.48 28-11.95 29.38-10.15 30.75-8.35 30.75-6.2L30.75-6.2Q30.75-5 30.23-3.73 29.7-2.45 28.55-1L28.55-1Q27.05 0.85 24.38 1.95 21.7 3.05 18.65 3.05ZM39.2 0.75L39.2 0.75Q36.95 0.75 35.3-0.3 33.65-1.35 33.65-3.5L33.65-3.5Q33.65-4.65 34.35-6.3L34.35-6.3Q34.85-7.45 36.2-8.95 37.55-10.45 39.35-11.88 41.15-13.3 43-14.23 44.85-15.15 46.35-15.15L46.35-15.15Q46.9-15.15 47.35-15L47.35-15Q48.2-14.7 48.52-14.05 48.85-13.4 48.85-12.7L48.85-12.7Q48.85-12.05 48.65-11.45 48.45-10.85 48.15-10.4L48.15-10.4Q47.25-9.05 45.57-8 43.9-6.95 42.17-6.35 40.45-5.75 39.35-5.65L39.35-5.65 39.25-5.65Q38.6-5.65 38.6-6.05L38.6-6.05Q38.6-6.3 39-6.3L39-6.3Q40.2-6.4 42.02-7.43 43.85-8.45 45.25-9.55L45.25-9.55Q45.85-10.05 46.67-10.95 47.5-11.85 47.5-12.7L47.5-12.7Q47.5-13.6 46.65-13.6L46.65-13.6Q46.2-13.6 45.72-13.4 45.25-13.2 44.95-13.1L44.95-13.1Q43.5-12.4 41.75-10.93 40-9.45 38.57-7.63 37.15-5.8 36.6-3.95L36.6-3.95Q36.45-3.55 36.4-3.18 36.35-2.8 36.35-2.45L36.35-2.45Q36.35-1.25 37.12-0.75 37.9-0.25 39-0.25L39-0.25Q40.65-0.25 42.4-0.98 44.15-1.7 45.8-2.85 47.45-4 48.82-5.33 50.2-6.65 51.15-7.9L51.15-7.9Q51.3-8.1 51.5-8.13 51.7-8.15 51.75-8.05L51.75-8.05Q51.95-8 51.95-7.78 51.95-7.55 51.85-7.35L51.85-7.35Q50.45-5.4 48.47-3.55 46.5-1.7 44.12-0.48 41.75 0.75 39.2 0.75ZM57.2 0.6L57.2 0.6Q56.35 0.6 55.7 0.23 55.05-0.15 54.8-1.2L54.8-1.2Q54.65-1.75 54.65-2.3L54.65-2.3Q54.65-3.8 55.42-5.23 56.2-6.65 57.25-7.88 58.3-9.1 59.05-9.95L59.05-9.95Q59.45-10.35 59.97-11 60.5-11.65 60.5-12.3L60.5-12.3Q60.5-12.7 60.1-13.08 59.7-13.45 58.65-13.6L58.65-13.6Q58.05-13.7 57.52-13.78 57-13.85 56.45-13.85L56.45-13.85Q55.05-11.95 53.72-10.03 52.4-8.1 50.9-6.25L50.9-6.25Q50.55-5.9 50.3-5.9L50.3-5.9Q50-5.9 50-6.2L50-6.2Q50-6.5 50.3-6.8L50.3-6.8Q53-10.1 54.95-13.85L54.95-13.85Q54.7-13.85 54.2-13.88 53.7-13.9 53.4-13.95L53.4-13.95Q53.05-14.05 52.85-14.25 52.65-14.45 52.65-14.65L52.65-14.65Q52.65-14.95 52.9-15L52.9-15Q53.55-15.2 54.3-15.6 55.05-16 55.7-16.65L55.7-16.65Q56.4-17.35 57-18.13 57.6-18.9 57.95-19.3L57.95-19.3Q58.3-19.55 58.7-19.55L58.7-19.55Q58.95-19.55 59.17-19.4 59.4-19.25 59.4-18.95L59.4-18.95Q59.4-18.6 59.1-18.05L59.1-18.05Q58.65-17.35 58.12-16.5 57.6-15.65 57.15-14.95L57.15-14.95Q58.05-14.9 58.95-14.85 59.85-14.8 60.8-14.8L60.8-14.8Q61.3-14.8 61.77-14.83 62.25-14.85 62.75-14.85L62.75-14.85Q64.25-14.85 64.25-14.1L64.25-14.1Q64.25-13.6 63.72-12.88 63.2-12.15 62.45-11.3L62.45-11.3Q60.75-9.35 59.55-7.2 58.35-5.05 57.95-3.9L57.95-3.9Q57.55-2.7 57.55-2.1L57.55-2.1Q57.55-0.9 58.5-0.9L58.5-0.9Q59.35-0.9 60.57-1.75 61.8-2.6 63.1-3.83 64.4-5.05 65.45-6.23 66.5-7.4 66.95-8L66.95-8Q67.05-8.15 67.25-8.15L67.25-8.15Q67.45-8.15 67.59-7.98 67.75-7.8 67.59-7.55L67.59-7.55Q67.05-6.7 66-5.43 64.95-4.15 63.65-2.9 62.35-1.65 61.1-0.75L61.1-0.75Q60.45-0.25 59.32 0.18 58.2 0.6 57.2 0.6ZM83.69 7.7L83.69 7.7Q81.84 7.7 80.17 6.38 78.49 5.05 77.09 2.88 75.69 0.7 74.72-1.88 73.74-4.45 73.29-6.9L73.29-6.9Q71.59-4.5 70.37-2.5 69.14-0.5 68.59-0.2L68.59-0.2Q68.34-0.05 67.44 0.3 66.54 0.65 66.09 0.65L66.09 0.65Q65.74 0.65 65.89 0.3L65.89 0.3Q65.99 0.1 66.39-0.98 66.79-2.05 67.34-3.65 67.89-5.25 68.52-7 69.14-8.75 69.74-10.3L69.74-10.3Q69.24-9.75 68.59-8.93 67.94-8.1 67.09-6.85L67.09-6.85Q66.94-6.6 66.59-6.6L66.59-6.6Q66.24-6.6 66.24-6.9L66.24-6.9Q66.24-7.2 66.59-7.6L66.59-7.6Q67.29-8.45 68.09-9.55 68.89-10.65 69.64-11.7 70.39-12.75 70.84-13.4L70.84-13.4Q70.09-13.8 70.09-14.45L70.09-14.45Q70.09-14.85 70.42-15.08 70.74-15.3 71.09-15.05L71.09-15.05Q71.29-14.95 71.44-14.95L71.44-14.95Q72.29-17.2 73.59-19.83 74.89-22.45 76.59-24.83 78.29-27.2 80.27-28.7 82.24-30.2 84.44-30.2L84.44-30.2Q84.69-30.2 84.97-30.18 85.24-30.15 85.49-30.1L85.49-30.1Q85.79-30.05 86.07-29.9 86.34-29.75 86.59-29.65L86.59-29.65Q87.74-29 87.74-27.75L87.74-27.75Q87.74-26.85 87.24-25.78 86.74-24.7 86.02-23.65 85.29-22.6 84.59-21.75 83.89-20.9 83.49-20.45L83.49-20.45Q81.04-17.95 78.22-15.9 75.39-13.85 73.29-13L73.29-13Q72.49-11.3 71.79-9.53 71.09-7.75 70.62-6.28 70.14-4.8 69.89-4L69.89-4Q70.74-5.05 71.52-6.13 72.29-7.2 73.09-8.25L73.09-8.25Q73.09-8.45 73.07-8.65 73.04-8.85 73.04-9.05L73.04-9.05Q73.04-9.35 73.07-9.63 73.09-9.9 73.14-10.15L73.14-10.15Q73.19-10.45 73.39-10.75 73.59-11.05 73.79-11.05L73.79-11.05Q74.09-11.05 74.14-10.45L74.14-10.45Q74.19-10.3 74.24-10.1 74.29-9.9 74.34-9.7L74.34-9.7Q74.99-10.45 75.97-11.55 76.94-12.65 77.99-13.65 79.04-14.65 79.89-15.05L79.89-15.05Q80.59-15.4 81.29-15.4L81.29-15.4Q81.99-15.4 82.44-15.08 82.89-14.75 82.89-14.3L82.89-14.3Q82.89-13.6 81.84-13.1L81.84-13.1Q81.04-12.75 79.72-12.1 78.39-11.45 76.99-10.55 75.59-9.65 74.59-8.6L74.59-8.6Q75.34-5.95 76.07-4.05 76.79-2.15 77.82-0.43 78.84 1.3 80.54 3.45L80.54 3.45Q81.69 4.75 82.89 5.55 84.09 6.35 85.04 6.35L85.04 6.35Q85.89 6.35 86.22 5.98 86.54 5.6 86.54 5.05L86.54 5.05Q86.54 4.4 86.22 3.63 85.89 2.85 85.54 2.35L85.54 2.35Q85.29 2.05 85.29 1.8L85.29 1.8Q85.29 1.65 85.49 1.65L85.49 1.65Q85.94 1.65 86.44 2.05L86.44 2.05Q86.69 2.35 87.12 3.23 87.54 4.1 87.54 4.75L87.54 4.75Q87.54 5.75 86.84 6.43 86.14 7.1 85.24 7.4 84.34 7.7 83.69 7.7ZM73.89-14.7L73.89-14.7Q76.04-15.65 78.24-17.3 80.44-18.95 82.34-21.2L82.34-21.2Q82.59-21.5 83.19-22.33 83.79-23.15 84.52-24.2 85.24-25.25 85.74-26.3 86.24-27.35 86.24-28.05L86.24-28.05Q86.24-28.55 85.94-28.75L85.94-28.75Q85.79-28.9 85.49-28.9L85.49-28.9Q84.69-28.9 83.64-28.05L83.64-28.05Q80.29-25.45 78.07-22.23 75.84-19 73.89-14.7ZM102.99 2.3L102.99 2.3Q100.39 2.3 98.21 1.43 96.04 0.55 94.76-1.28 93.49-3.1 93.49-5.95L93.49-5.95Q93.49-7.55 93.94-9.4L93.94-9.4Q94.64-12.35 96.26-15.3 97.89-18.25 100.16-20.85 102.44-23.45 105.14-25.48 107.84-27.5 110.71-28.68 113.59-29.85 116.44-29.85L116.44-29.85Q117.29-29.85 118.19-29.7L118.19-29.7Q120.19-29.35 121.16-28.23 122.14-27.1 122.14-25.65L122.14-25.65Q122.14-23.95 121.04-22.25 119.94-20.55 118.16-19.03 116.39-17.5 114.31-16.3 112.24-15.1 110.24-14.35 108.24-13.6 106.69-13.5L106.69-13.5Q105.74-13.45 105.74-14.05L105.74-14.05Q105.74-14.35 106.06-14.68 106.39-15 106.99-15.05L106.99-15.05Q110.89-15.4 114.26-17.43 117.64-19.45 119.44-22.95L119.44-22.95Q119.84-23.7 120.06-24.48 120.29-25.25 120.29-25.95L120.29-25.95Q120.29-27.05 119.66-27.83 119.04-28.6 117.49-28.6L117.49-28.6Q115.79-28.6 113.49-27.58 111.19-26.55 108.66-24.7 106.14-22.85 103.71-20.33 101.29-17.8 99.36-14.83 97.44-11.85 96.39-8.55L96.39-8.55Q95.74-6.55 95.74-4.85L95.74-4.85Q95.74-1.8 97.84-0.38 99.94 1.05 103.29 1.05L103.29 1.05Q106.19 1.05 109.66 0.05 113.14-0.95 116.44-3.03 119.74-5.1 121.99-8.3L121.99-8.3Q122.14-8.5 122.34-8.5L122.34-8.5Q122.54-8.5 122.71-8.3 122.89-8.1 122.74-7.9L122.74-7.9Q120.14-4.3 116.76-2.05 113.39 0.2 109.79 1.25 106.19 2.3 102.99 2.3ZM125.04 0.55L125.04 0.55Q123.64 0.55 122.59-0.1L122.59-0.1Q120.84-1.15 120.84-3.9L120.84-3.9Q120.84-5.05 121.24-6.55L121.24-6.55Q121.59-7.8 122.49-9.28 123.39-10.75 124.61-12.1 125.84-13.45 127.29-14.3 128.74-15.15 130.19-15.15L130.19-15.15Q130.79-15.15 131.24-15L131.24-15Q131.84-14.8 132.26-14.28 132.69-13.75 132.69-12.95L132.69-12.95Q132.69-12.1 132.26-12 131.84-11.9 131.84-12.2L131.84-12.2Q131.84-12.3 131.86-12.4 131.89-12.5 131.89-12.55L131.89-12.55Q131.89-12.95 131.66-13.28 131.44-13.6 130.84-13.6L130.84-13.6Q130.04-13.6 128.86-12.75 127.69-11.9 126.46-10.48 125.24-9.05 124.31-7.35 123.39-5.65 123.09-3.95L123.09-3.95Q123.04-3.7 123.01-3.48 122.99-3.25 122.99-3L122.99-3Q122.99-1.85 123.51-1.07 124.04-0.3 125.19-0.3L125.19-0.3Q126.59-0.3 127.89-1.38 129.19-2.45 130.21-3.95 131.24-5.45 131.74-6.6L131.74-6.6Q132.14-7.5 132.29-8.15 132.44-8.8 132.44-9.25L132.44-9.25Q132.44-9.65 132.36-9.95 132.29-10.25 132.19-10.45L132.19-10.45Q132.09-10.75 132.09-10.9L132.09-10.9Q132.09-11.3 132.41-11.55 132.74-11.8 133.09-11.8L133.09-11.8Q133.39-11.8 133.74-11.6L133.74-11.6Q134.14-11.5 134.84-11.45 135.54-11.4 136.34-11.4L136.34-11.4Q137.19-11.4 138.06-11.45 138.94-11.5 139.59-11.65L139.59-11.65Q139.69-11.7 139.89-11.7L139.89-11.7Q140.24-11.7 140.24-11.5L140.24-11.5Q140.24-11.3 139.89-11.15L139.89-11.15Q138.14-10.35 136.76-10.3 135.39-10.25 134.39-10.25L134.39-10.25Q134.49-9 133.84-7.58 133.19-6.15 132.49-5.05L132.49-5.05Q131.64-3.8 130.54-2.5 129.44-1.2 128.09-0.33 126.74 0.55 125.04 0.55ZM141.68 0.5L141.68 0.5Q139.58 0.5 138.76-0.55 137.93-1.6 137.93-3.15L137.93-3.15Q137.93-4.6 138.61-6.8 139.28-9 140.38-11.55 141.48-14.1 142.76-16.63 144.03-19.15 145.31-21.28 146.58-23.4 147.53-24.7L147.53-24.7Q148.48-25.95 149.58-27.2 150.68-28.45 152.03-29.3 153.38-30.15 155.08-30.15L155.08-30.15Q156.23-30.15 157.06-29.53 157.88-28.9 157.88-27.65L157.88-27.65Q157.88-27.15 157.71-26.5 157.53-25.85 157.13-25.15L157.13-25.15Q154.08-19.85 149.86-15.35 145.63-10.85 140.93-7L140.93-7Q140.73-6.25 140.56-5.65 140.38-5.05 140.28-4.7L140.28-4.7Q140.23-4.45 140.23-4.17 140.23-3.9 140.23-3.65L140.23-3.65Q140.23-2.45 140.63-1.55 141.03-0.65 141.98-0.65L141.98-0.65Q142.88-0.65 144.21-1.53 145.53-2.4 146.88-3.68 148.23-4.95 149.33-6.15 150.43-7.35 150.88-8L150.88-8Q151.03-8.15 151.18-8.15L151.18-8.15Q151.38-8.15 151.51-7.95 151.63-7.75 151.48-7.45L151.48-7.45Q150.98-6.6 149.88-5.35 148.78-4.1 147.43-2.83 146.08-1.55 144.83-0.6L144.83-0.6Q143.28 0.5 141.68 0.5ZM141.63-9L141.63-9Q143.53-10.3 145.58-12.38 147.63-14.45 149.61-16.9 151.58-19.35 153.21-21.75 154.83-24.15 155.83-26.1L155.83-26.1Q156.13-26.65 156.26-27.08 156.38-27.5 156.38-27.85L156.38-27.85Q156.38-28.8 155.58-28.8L155.58-28.8Q154.88-28.8 153.83-28.05L153.83-28.05Q151.13-25.95 148.83-22.68 146.53-19.4 144.73-15.8 142.93-12.2 141.63-9ZM164.13 0.5L164.13 0.5Q163.28 0.5 162.56 0.1 161.83-0.3 161.48-1.4L161.48-1.4Q161.33-1.85 161.33-2.65L161.33-2.65Q161.33-3.75 161.63-5.1 161.93-6.45 162.28-7.4L162.28-7.4Q162.03-7.3 161.36-6.53 160.68-5.75 159.71-4.67 158.73-3.6 157.56-2.53 156.38-1.45 155.13-0.75 153.88-0.05 152.68-0.05L152.68-0.05Q151.88-0.05 150.98-0.53 150.08-1 149.53-1.75L149.53-1.75Q148.78-2.75 148.78-3.8L148.78-3.8Q148.78-5.15 149.71-6.6 150.63-8.05 152.11-9.43 153.58-10.8 155.25-11.93 156.93-13.05 158.46-13.83 159.98-14.6 160.93-14.85L160.93-14.85Q161.93-15.15 163.18-15.15L163.18-15.15Q163.88-15.15 164.63-14.98 165.38-14.8 165.88-14.4L165.88-14.4Q166.28-14.2 166.53-13.85 166.78-13.5 166.78-13.1L166.78-13.1Q166.78-12.7 166.43-12.85L166.43-12.85Q166.03-13.45 165.36-13.63 164.68-13.8 163.98-13.8L163.98-13.8Q161.98-13.8 159.58-12.5 157.18-11.2 155.28-9.45L155.28-9.45Q154.68-8.95 153.66-7.73 152.63-6.5 151.78-5.05 150.93-3.6 150.93-2.4L150.93-2.4Q150.93-1.75 151.28-1.25L151.28-1.25Q151.48-0.9 151.93-0.9L151.93-0.9Q152.63-0.9 153.81-1.65 154.98-2.4 156.23-3.48 157.48-4.55 158.5-5.55 159.53-6.55 159.98-7L159.98-7Q160.23-7.25 160.96-8.03 161.68-8.8 162.53-9.7 163.38-10.6 164.06-11.25 164.73-11.9 164.93-11.9L164.93-11.9Q165.18-11.9 165.75-11.78 166.33-11.65 166.73-11.4 167.13-11.15 166.88-10.75L166.88-10.75Q165.58-8.85 164.81-6.78 164.03-4.7 163.88-3.5L163.88-3.5Q163.83-3.3 163.83-3.13 163.83-2.95 163.83-2.75L163.83-2.75Q163.83-0.75 165.23-0.75L165.23-0.75Q165.98-0.75 167.23-1.65 168.48-2.55 169.78-3.8 171.08-5.05 172.16-6.23 173.23-7.4 173.63-8L173.63-8Q173.78-8.15 173.93-8.15L173.93-8.15Q174.13-8.15 174.28-7.98 174.43-7.8 174.28-7.55L174.28-7.55Q173.73-6.65 172.68-5.4 171.63-4.15 170.33-2.9 169.03-1.65 167.78-0.75L167.78-0.75Q167.13-0.25 166.13 0.13 165.13 0.5 164.13 0.5ZM190.23 7.7L190.23 7.7Q188.38 7.7 186.7 6.38 185.03 5.05 183.63 2.88 182.23 0.7 181.25-1.88 180.28-4.45 179.83-6.9L179.83-6.9Q178.13-4.5 176.9-2.5 175.68-0.5 175.13-0.2L175.13-0.2Q174.88-0.05 173.98 0.3 173.08 0.65 172.63 0.65L172.63 0.65Q172.28 0.65 172.43 0.3L172.43 0.3Q172.53 0.1 172.93-0.98 173.33-2.05 173.88-3.65 174.43-5.25 175.05-7 175.68-8.75 176.28-10.3L176.28-10.3Q175.78-9.75 175.13-8.93 174.48-8.1 173.63-6.85L173.63-6.85Q173.48-6.6 173.13-6.6L173.13-6.6Q172.78-6.6 172.78-6.9L172.78-6.9Q172.78-7.2 173.13-7.6L173.13-7.6Q173.83-8.45 174.63-9.55 175.43-10.65 176.18-11.7 176.93-12.75 177.38-13.4L177.38-13.4Q176.63-13.8 176.63-14.45L176.63-14.45Q176.63-14.85 176.95-15.08 177.28-15.3 177.63-15.05L177.63-15.05Q177.83-14.95 177.98-14.95L177.98-14.95Q178.83-17.2 180.13-19.83 181.43-22.45 183.13-24.83 184.83-27.2 186.8-28.7 188.78-30.2 190.98-30.2L190.98-30.2Q191.23-30.2 191.5-30.18 191.78-30.15 192.03-30.1L192.03-30.1Q192.33-30.05 192.6-29.9 192.88-29.75 193.13-29.65L193.13-29.65Q194.28-29 194.28-27.75L194.28-27.75Q194.28-26.85 193.78-25.78 193.28-24.7 192.55-23.65 191.83-22.6 191.13-21.75 190.43-20.9 190.03-20.45L190.03-20.45Q187.58-17.95 184.75-15.9 181.93-13.85 179.83-13L179.83-13Q179.03-11.3 178.33-9.53 177.63-7.75 177.15-6.28 176.68-4.8 176.43-4L176.43-4Q177.28-5.05 178.05-6.13 178.83-7.2 179.63-8.25L179.63-8.25Q179.63-8.45 179.6-8.65 179.58-8.85 179.58-9.05L179.58-9.05Q179.58-9.35 179.6-9.63 179.63-9.9 179.68-10.15L179.68-10.15Q179.73-10.45 179.93-10.75 180.13-11.05 180.33-11.05L180.33-11.05Q180.63-11.05 180.68-10.45L180.68-10.45Q180.73-10.3 180.78-10.1 180.83-9.9 180.88-9.7L180.88-9.7Q181.53-10.45 182.5-11.55 183.48-12.65 184.53-13.65 185.58-14.65 186.43-15.05L186.43-15.05Q187.13-15.4 187.83-15.4L187.83-15.4Q188.53-15.4 188.98-15.08 189.43-14.75 189.43-14.3L189.43-14.3Q189.43-13.6 188.38-13.1L188.38-13.1Q187.58-12.75 186.25-12.1 184.93-11.45 183.53-10.55 182.13-9.65 181.13-8.6L181.13-8.6Q181.88-5.95 182.6-4.05 183.33-2.15 184.35-0.43 185.38 1.3 187.08 3.45L187.08 3.45Q188.23 4.75 189.43 5.55 190.63 6.35 191.58 6.35L191.58 6.35Q192.43 6.35 192.75 5.98 193.08 5.6 193.08 5.05L193.08 5.05Q193.08 4.4 192.75 3.63 192.43 2.85 192.08 2.35L192.08 2.35Q191.83 2.05 191.83 1.8L191.83 1.8Q191.83 1.65 192.03 1.65L192.03 1.65Q192.48 1.65 192.98 2.05L192.98 2.05Q193.23 2.35 193.65 3.23 194.08 4.1 194.08 4.75L194.08 4.75Q194.08 5.75 193.38 6.43 192.68 7.1 191.78 7.4 190.88 7.7 190.23 7.7ZM180.43-14.7L180.43-14.7Q182.58-15.65 184.78-17.3 186.98-18.95 188.88-21.2L188.88-21.2Q189.13-21.5 189.73-22.33 190.33-23.15 191.05-24.2 191.78-25.25 192.28-26.3 192.78-27.35 192.78-28.05L192.78-28.05Q192.78-28.55 192.48-28.75L192.48-28.75Q192.33-28.9 192.03-28.9L192.03-28.9Q191.23-28.9 190.18-28.05L190.18-28.05Q186.83-25.45 184.6-22.23 182.38-19 180.43-14.7Z" opacity="1" transform="matrix(1,0,0,1,0,0)" fill="#6a704c" class="wordmark-text-0" data-fill-palette-color="primary" id="text-0"></path></svg></g></svg></g><g transform="matrix(1,0,0,1,0,95.73255667170241)"><svg viewBox="0 0 232.209792 30.56254495977417" height="30.56254495977417" width="232.209792"><g transform="matrix(1,0,0,1,0,0)"><svg width="232.209792" viewBox="3.799999952316284 -31.5 283.3500061035156 37.29999923706055" height="30.56254495977417" data-palette-color="#6a704c"><path d="M4.6 0L3.8 0 3.8-29.55 16.05-29.55 16.05-28.75 4.6-28.75 4.6-15.95 13.5-15.95 13.5-15.15 4.6-15.15 4.6 0ZM25.05 0.4L25.05 0.4Q22.95 0.4 21.72-0.18 20.5-0.75 19.95-1.73 19.4-2.7 19.25-3.85 19.1-5 19.1-6.15L19.1-6.15 19.1-24.75 19.9-24.75 19.9-6.6Q19.9-5.15 20.15-3.7 20.4-2.25 21.47-1.33 22.55-0.4 25.05-0.4L25.05-0.4Q27.8-0.4 29.05-1.78 30.3-3.15 30.5-5.3L30.5-5.3 30.5-24.75 31.3-24.75 31.3 0 30.6 0 30.5-2.5Q29.95-1.35 28.67-0.48 27.4 0.4 25.05 0.4ZM38.9 0L38.09 0 38.09-31.5 38.9-31.5 38.9 0ZM46.49 0L45.69 0 45.69-31.5 46.49-31.5 46.49 0ZM65.99 0.45L65.99 0.45Q64.09 0.45 62.64-0.33 61.19-1.1 60.41-3 59.64-4.9 59.64-8.15L59.64-8.15 59.64-8.75 60.44-8.75 60.44-8.15Q60.44-5.15 61.16-3.45 61.89-1.75 63.14-1.05 64.39-0.35 65.99-0.35L65.99-0.35Q68.64-0.35 70.39-1.88 72.14-3.4 72.14-7.3L72.14-7.3Q72.14-9.9 71.26-11.28 70.39-12.65 68.91-13.4 67.44-14.15 65.69-14.8L65.69-14.8Q63.89-15.5 62.56-16.38 61.24-17.25 60.51-18.65 59.79-20.05 59.79-22.4L59.79-22.4Q59.79-25.75 61.26-27.75 62.74-29.75 66.19-29.75L66.19-29.75Q69.19-29.75 70.94-28.1 72.69-26.45 72.69-23.45L72.69-23.45 72.69-21.45 71.89-21.45 71.89-23.25Q71.89-25.95 70.39-27.45 68.89-28.95 66.19-28.95L66.19-28.95Q63.09-28.95 61.84-27.08 60.59-25.2 60.59-22.4L60.59-22.4Q60.59-20.1 61.36-18.8 62.14-17.5 63.41-16.8 64.69-16.1 66.14-15.5L66.14-15.5Q68.54-14.55 70.04-13.65 71.54-12.75 72.24-11.33 72.94-9.9 72.94-7.3L72.94-7.3Q72.94-4.45 72.01-2.75 71.09-1.05 69.51-0.3 67.94 0.45 65.99 0.45ZM81.99 0L81.99 0Q80.04 0 79.19-1.18 78.34-2.35 78.34-4.65L78.34-4.65 78.34-23.95 76.44-23.95 76.44-24.65 78.34-24.75 78.49-29.6 79.14-29.6 79.14-24.75 84.94-24.75 84.94-23.95 79.14-23.95 79.14-4.4Q79.14-3 79.69-1.88 80.24-0.75 81.94-0.75L81.94-0.75Q82.64-0.75 83.34-0.83 84.04-0.9 84.94-1L84.94-1 84.94-0.2Q84.59-0.15 83.76-0.08 82.94 0 81.99 0ZM93.28 0.2L93.28 0.2Q92.13 0.2 90.91-0.2 89.68-0.6 88.83-1.83 87.98-3.05 87.98-5.6L87.98-5.6 87.98-7.3Q87.98-8.9 88.71-10.1 89.43-11.3 90.46-12.13 91.48-12.95 92.46-13.48 93.43-14 93.88-14.25L93.88-14.25Q95.88-15.35 97.01-16.18 98.13-17 98.63-17.88 99.13-18.75 99.13-20L99.13-20 99.13-20.7Q99.13-22.4 98.41-23.15 97.68-23.9 96.58-24.1 95.48-24.3 94.33-24.3L94.33-24.3Q92.13-24.3 91.06-23.55 89.98-22.8 89.66-21.55 89.33-20.3 89.33-18.75L89.33-18.75 89.33-16.7 88.53-16.7 88.53-18.85Q88.53-21.75 89.68-23.43 90.83-25.1 94.33-25.1L94.33-25.1Q97.03-25.1 98.21-24.4 99.38-23.7 99.66-22.58 99.93-21.45 99.93-20.1L99.93-20.1 99.93 0 99.18 0 99.18-3.65Q98.58-1.9 97.06-0.85 95.53 0.2 93.28 0.2ZM93.43-0.6L93.43-0.6Q95.63-0.6 96.86-1.55 98.08-2.5 98.61-4.15 99.13-5.8 99.13-7.85L99.13-7.85 99.13-17.05Q98.33-15.95 96.96-15.13 95.58-14.3 94.13-13.45L94.13-13.45Q92.88-12.75 91.66-11.98 90.43-11.2 89.61-10 88.78-8.8 88.78-6.9L88.78-6.9 88.78-5.6Q88.78-3.25 89.53-2.2 90.28-1.15 91.38-0.88 92.48-0.6 93.43-0.6ZM111.93 0.35L111.93 0.35Q109.78 0.35 108.56-0.23 107.33-0.8 106.78-1.75 106.23-2.7 106.08-3.88 105.93-5.05 105.93-6.2L105.93-6.2 105.93-18.6Q105.93-19.75 106.08-20.9 106.23-22.05 106.78-23.03 107.33-24 108.56-24.58 109.78-25.15 111.93-25.15L111.93-25.15Q114.03-25.15 115.26-24.58 116.48-24 117.03-23.03 117.58-22.05 117.73-20.9 117.88-19.75 117.88-18.6L117.88-18.6 117.88-16.4 117.08-16.4 117.08-18.45Q117.08-19.8 116.81-21.15 116.53-22.5 115.46-23.43 114.38-24.35 111.93-24.35L111.93-24.35Q109.48-24.35 108.38-23.43 107.28-22.5 107.01-21.15 106.73-19.8 106.73-18.45L106.73-18.45 106.73-6.35Q106.73-5.05 107.01-3.68 107.28-2.3 108.38-1.38 109.48-0.45 111.93-0.45L111.93-0.45Q114.38-0.45 115.46-1.38 116.53-2.3 116.81-3.68 117.08-5.05 117.08-6.35L117.08-6.35 117.08-8.35 117.88-8.35 117.88-6.2Q117.88-4.65 117.58-3.15 117.28-1.65 116.03-0.65 114.78 0.35 111.93 0.35ZM124.43 0L123.63 0 123.63-31.5 124.43-31.5 124.43-14.8 126.33-14.8 133.18-24.75 134.13-24.75 126.98-14.35 134.43 0 133.58 0 126.28-14 124.43-14 124.43 0ZM154.47 0L146.67 0 146.67-29.55 154.47-29.55Q156.27-29.55 157.67-29.03 159.07-28.5 159.9-27.1 160.72-25.7 160.72-23.05L160.72-23.05 160.72-6.5Q160.72-3.9 159.95-2.48 159.17-1.05 157.77-0.53 156.37 0 154.47 0L154.47 0ZM147.47-28.8L147.47-0.8 154.47-0.8Q157.02-0.8 158.47-1.98 159.92-3.15 159.92-6.75L159.92-6.75 159.92-22.75Q159.92-26.15 158.5-27.48 157.07-28.8 154.47-28.8L154.47-28.8 147.47-28.8ZM173.02 0.35L173.02 0.35Q170.87 0.35 169.65-0.23 168.42-0.8 167.87-1.75 167.32-2.7 167.17-3.88 167.02-5.05 167.02-6.2L167.02-6.2 167.02-18.6Q167.02-20.15 167.37-21.65 167.72-23.15 169-24.15 170.27-25.15 173.02-25.15L173.02-25.15Q175.82-25.15 177.07-24.2 178.32-23.25 178.65-21.75 178.97-20.25 178.97-18.6L178.97-18.6 178.97-13.15 167.82-13.15 167.82-6.35Q167.82-4.9 168.1-3.53 168.37-2.15 169.47-1.3 170.57-0.45 173.02-0.45L173.02-0.45Q175.47-0.45 176.55-1.3 177.62-2.15 177.9-3.5 178.17-4.85 178.17-6.35L178.17-6.35 178.17-8.35 178.97-8.35 178.97-6.2Q178.97-4.65 178.67-3.15 178.37-1.65 177.12-0.65 175.87 0.35 173.02 0.35ZM167.82-18.15L167.82-13.95 178.17-13.95 178.17-18.15Q178.17-19.9 177.92-21.3 177.67-22.7 176.6-23.53 175.52-24.35 173.02-24.35L173.02-24.35Q170.82-24.35 169.7-23.58 168.57-22.8 168.2-21.43 167.82-20.05 167.82-18.15L167.82-18.15ZM189.42 0L188.52 0 182.52-24.75 183.32-24.75 188.97-1.35 194.67-24.75 195.47-24.75 189.42 0ZM205.12 0.35L205.12 0.35Q202.97 0.35 201.74-0.23 200.52-0.8 199.97-1.75 199.42-2.7 199.27-3.88 199.12-5.05 199.12-6.2L199.12-6.2 199.12-18.6Q199.12-20.15 199.47-21.65 199.82-23.15 201.09-24.15 202.37-25.15 205.12-25.15L205.12-25.15Q207.92-25.15 209.17-24.2 210.42-23.25 210.74-21.75 211.07-20.25 211.07-18.6L211.07-18.6 211.07-13.15 199.92-13.15 199.92-6.35Q199.92-4.9 200.19-3.53 200.47-2.15 201.57-1.3 202.67-0.45 205.12-0.45L205.12-0.45Q207.57-0.45 208.64-1.3 209.72-2.15 209.99-3.5 210.27-4.85 210.27-6.35L210.27-6.35 210.27-8.35 211.07-8.35 211.07-6.2Q211.07-4.65 210.77-3.15 210.47-1.65 209.22-0.65 207.97 0.35 205.12 0.35ZM199.92-18.15L199.92-13.95 210.27-13.95 210.27-18.15Q210.27-19.9 210.02-21.3 209.77-22.7 208.69-23.53 207.62-24.35 205.12-24.35L205.12-24.35Q202.92-24.35 201.79-23.58 200.67-22.8 200.29-21.43 199.92-20.05 199.92-18.15L199.92-18.15ZM218.11 0L217.31 0 217.31-31.5 218.11-31.5 218.11 0ZM230.46 0.35L230.46 0.35Q228.31 0.35 227.09-0.23 225.86-0.8 225.31-1.75 224.76-2.7 224.61-3.88 224.46-5.05 224.46-6.2L224.46-6.2 224.46-18.6Q224.46-19.75 224.61-20.9 224.76-22.05 225.34-23.03 225.91-24 227.16-24.58 228.41-25.15 230.66-25.15L230.66-25.15Q233.41-25.15 234.66-24.15 235.91-23.15 236.29-21.65 236.66-20.15 236.66-18.6L236.66-18.6 236.66-6.2Q236.66-4.65 236.29-3.15 235.91-1.65 234.61-0.65 233.31 0.35 230.46 0.35ZM230.46-0.45L230.46-0.45Q233.06-0.45 234.19-1.38 235.31-2.3 235.59-3.68 235.86-5.05 235.86-6.35L235.86-6.35 235.86-18.45Q235.86-19.8 235.59-21.15 235.31-22.5 234.24-23.43 233.16-24.35 230.66-24.35L230.66-24.35Q228.66-24.35 227.54-23.8 226.41-23.25 225.94-22.38 225.46-21.5 225.36-20.48 225.26-19.45 225.26-18.45L225.26-18.45 225.26-6.35Q225.26-5.35 225.36-4.33 225.46-3.3 225.91-2.43 226.36-1.55 227.44-1 228.51-0.45 230.46-0.45ZM243.81 5.8L243.01 5.8 243.01-24.75 243.71-24.75 243.81-22.25Q244.06-23.25 245.23-24.2 246.41-25.15 249.01-25.15L249.01-25.15Q251.11-25.15 252.33-24.58 253.56-24 254.11-23.03 254.66-22.05 254.81-20.9 254.96-19.75 254.96-18.6L254.96-18.6 254.96-6.2Q254.96-4.65 254.66-3.15 254.36-1.65 253.11-0.65 251.86 0.35 249.01 0.35L249.01 0.35Q246.51 0.35 245.31-0.38 244.11-1.1 243.81-1.9L243.81-1.9 243.81 5.8ZM249.01-0.45L249.01-0.45Q250.96-0.45 252.01-1 253.06-1.55 253.51-2.43 253.96-3.3 254.06-4.33 254.16-5.35 254.16-6.35L254.16-6.35 254.16-18.45Q254.16-19.95 253.93-21.3 253.71-22.65 252.66-23.5 251.61-24.35 249.01-24.35L249.01-24.35Q246.61-24.35 245.51-23.48 244.41-22.6 244.11-21.2 243.81-19.8 243.81-18.15L243.81-18.15 243.81-6.35Q243.81-5.35 243.91-4.33 244.01-3.3 244.46-2.43 244.91-1.55 245.98-1 247.06-0.45 249.01-0.45ZM266.86 0.35L266.86 0.35Q264.71 0.35 263.48-0.23 262.26-0.8 261.71-1.75 261.16-2.7 261.01-3.88 260.86-5.05 260.86-6.2L260.86-6.2 260.86-18.6Q260.86-20.15 261.21-21.65 261.56-23.15 262.83-24.15 264.11-25.15 266.86-25.15L266.86-25.15Q269.66-25.15 270.91-24.2 272.16-23.25 272.48-21.75 272.81-20.25 272.81-18.6L272.81-18.6 272.81-13.15 261.66-13.15 261.66-6.35Q261.66-4.9 261.93-3.53 262.21-2.15 263.31-1.3 264.41-0.45 266.86-0.45L266.86-0.45Q269.31-0.45 270.38-1.3 271.46-2.15 271.73-3.5 272.01-4.85 272.01-6.35L272.01-6.35 272.01-8.35 272.81-8.35 272.81-6.2Q272.81-4.65 272.51-3.15 272.21-1.65 270.96-0.65 269.71 0.35 266.86 0.35ZM261.66-18.15L261.66-13.95 272.01-13.95 272.01-18.15Q272.01-19.9 271.76-21.3 271.51-22.7 270.43-23.53 269.36-24.35 266.86-24.35L266.86-24.35Q264.66-24.35 263.53-23.58 262.41-22.8 262.03-21.43 261.66-20.05 261.66-18.15L261.66-18.15ZM279.85 0L279.05 0 279.05-24.75 279.75-24.75 279.85-22.25Q280.4-23.4 281.68-24.28 282.95-25.15 285.3-25.15L285.3-25.15Q286.35-25.15 287.15-25L287.15-25 287.15-24.2Q286.35-24.35 285.3-24.35L285.3-24.35Q282.55-24.35 281.2-22.9 279.85-21.45 279.85-19.45L279.85-19.45 279.85 0Z" opacity="1" transform="matrix(1,0,0,1,0,0)" fill="#6a704c" class="slogan-text-1" data-fill-palette-color="secondary" id="text-1"></path></svg></g></svg></g></svg></g></svg></g><g><svg viewBox="0 0 149.8133618715804 174.53983045470062" height="174.53983045470062" width="149.8133618715804"><g><svg xmlns="http://www.w3.org/2000/svg" xml:space="preserve" viewBox="17.100000381469727 11.999998092651367 61.80000305175781 72" x="0" y="0" height="174.53983045470062" width="149.8133618715804" class="icon-icon-0" data-fill-palette-color="accent" id="icon-0"><path d="M48 47.3c9.7 0 17.7-7.9 17.7-17.7 0-9.7-8-17.6-17.7-17.6s-17.7 7.9-17.7 17.7c0 9.7 8 17.6 17.7 17.6M64 48.4c-4.4 3.9-10 6.1-16 6.1s-11.6-2.1-16-6.1c-8.4 1.1-14.9 8.3-14.9 16.9V84h61.8V65.3c0-8.6-6.5-15.9-14.9-16.9M39.7 72.7l-2.8 2.9-6.6-6.6 6.6-6.6 2.8 2.9L36 69z m7.8 6.7l-3.8-1.1 5.7-19.9 3.8 1.1z m11.6-3.8l-2.8-2.9L60 69l-3.7-3.7 2.8-2.9 6.6 6.6z" fill="#412e27" data-fill-palette-color="accent"></path></svg></g></svg></g></svg></g><defs></defs></svg><rect width="395.52" height="122.48384033862118" fill="none" stroke="none" visibility="hidden"></rect></g></svg>