<svg width="220" height="171" viewBox="0 0 220 171" fill="none" xmlns="http://www.w3.org/2000/svg">
<path d="M96.8945 86.1838C112.336 86.1838 119.147 95.5538 116.966 114.77L113.462 145.615C113.447 146.213 113.241 146.791 112.874 147.261C112.508 147.731 112 148.068 111.429 148.221C104.339 150.347 96.9846 151.426 89.5913 151.425C72.3075 151.425 65.2965 143.832 66.8173 130.43C68.1645 118.57 76.5353 112.395 91.0528 112.395C93.4661 112.369 95.8768 112.568 98.2544 112.988L98.2798 112.752C98.7923 108.247 97.9409 104.923 92.0102 104.923C87.9108 104.973 83.8681 105.902 80.1487 107.65C78.9414 108.363 77.9459 108.127 77.4799 106.821L74.091 95.3175C73.5261 94.0121 73.6349 93.0632 74.4171 92.4706C81.2024 88.3331 88.9762 86.1586 96.8945 86.1838ZM91.4128 134.45C92.9079 134.424 94.3978 134.264 95.8652 133.973L96.7801 125.904C95.3326 125.524 93.8445 125.325 92.3491 125.312C88.5661 125.312 86.448 126.853 86.1388 129.58C85.7872 132.676 87.6299 134.45 91.4128 134.45Z" fill="#AAEE03"/>
<path d="M102.384 16.4358C117.825 16.4358 124.637 25.8055 122.456 45.0217L118.952 75.8621C118.937 76.461 118.731 77.0388 118.364 77.5088C117.997 77.9788 117.49 78.3156 116.919 78.4686C109.829 80.5948 102.474 81.6737 95.081 81.672C77.7973 81.672 70.7863 74.08 72.3071 60.6781C73.6542 48.8177 82.025 42.6428 96.5425 42.6428C98.9559 42.6169 101.366 42.8153 103.744 43.2354L103.77 42.9992C104.282 38.4946 103.431 35.171 97.4999 35.171C93.4004 35.2201 89.3578 36.1494 85.6385 37.8977C84.4312 38.6106 83.4356 38.3744 82.9696 37.069L79.5807 25.565C79.0159 24.2596 79.1246 23.3106 79.9069 22.7181C86.6929 18.5828 94.4665 16.4102 102.384 16.4358ZM96.9026 64.7017C98.3976 64.6756 99.8874 64.5162 101.355 64.225L102.27 56.1564C100.822 55.7756 99.3342 55.5766 97.8388 55.5638C94.0559 55.5638 91.9378 57.1053 91.6285 59.8321C91.2769 62.9325 93.1196 64.7017 96.9026 64.7017Z" fill="#AAEE03"/>
<path d="M184.763 8.29696C184.703 7.09764 185.091 5.91955 185.851 4.99781C186.61 4.07606 187.684 3.47846 188.859 3.32435L215.666 0.0393465C218.072 -0.256948 219.224 1.16869 218.966 4.11017L210.256 103.133C206.478 146.074 190.876 165.445 158.519 169.408C142.803 171.332 131.971 169.752 122.312 163.104C120.419 161.769 120.063 159.579 121.575 156.934L134.987 133.376C136.499 130.731 138.02 130.095 140.117 131.182C146.211 134.001 152.961 135.033 159.604 134.162C169.034 133.007 174.731 128.507 175.748 116.985C171.196 118.889 166.408 120.153 161.519 120.743C136.377 123.822 124.07 105.645 126.735 75.3497L132.064 14.7596C132.005 13.5606 132.394 12.3829 133.153 11.4614C133.912 10.5399 134.986 9.94208 136.16 9.78702L162.967 6.50202C165.373 6.20573 166.526 7.63137 166.268 10.5728L160.959 70.931C160.112 80.6529 162.01 86.0119 169.775 85.0586C172.793 84.6789 175.693 83.637 178.273 82.0055L184.763 8.29696Z" fill="#0076F6"/>
<path d="M46.3815 25.25C46.3342 24.381 46.614 23.5262 47.1644 22.8582C47.7148 22.1903 48.4949 21.759 49.3469 21.6515L68.7361 19.2769C70.4729 19.0622 71.3075 20.0928 71.1211 22.2183L64.8218 93.8358C62.0894 124.908 50.8084 138.924 27.4033 141.771C16.0375 143.162 8.20046 142.02 1.21493 137.215C-0.157608 136.249 -0.411779 134.664 0.681167 132.749L10.3821 115.71C11.4751 113.795 12.5722 113.34 14.093 114.121C18.5023 116.158 23.3862 116.901 28.1912 116.268C29.7693 116.251 31.3279 115.913 32.7751 115.275C34.2223 114.637 35.5286 113.712 36.617 112.553C37.7053 111.395 38.5536 110.027 39.1117 108.531C39.6697 107.034 39.9263 105.44 39.8662 103.841C36.5729 105.218 33.1096 106.132 29.5722 106.559C11.3861 108.784 2.49003 95.6393 4.41328 73.7264L8.26824 29.9049C8.22088 29.0359 8.50069 28.181 9.05112 27.5131C9.60155 26.8451 10.3816 26.4138 11.2336 26.3063L30.6228 23.9317C32.3596 23.717 33.1942 24.7476 33.0078 26.8732L29.1655 70.5358C28.547 77.5696 29.9238 81.4429 35.541 80.7558C37.7237 80.481 39.8212 79.7278 41.6878 78.5486L46.3815 25.25Z" fill="#0076F6"/>
</svg>
